<svg width="93" height="84" viewBox="0 0 93 84" fill="none" xmlns="http://www.w3.org/2000/svg">
<path d="M34.1744 55.1385C52.7062 55.1385 68.3488 58.0837 68.3488 69.4727C68.3488 80.8528 52.6061 83.7 34.1744 83.7L32.9155 83.6954C14.9397 83.5618 0 80.4959 0 69.3658C0 57.9857 15.7427 55.1385 34.1744 55.1385ZM63.0991 48.2819C70.1469 48.1482 77.7271 49.0973 80.5253 49.7657C86.4584 50.9019 90.3576 53.2145 91.9729 56.5875C93.3424 59.3501 93.3424 62.5582 91.9729 65.3208C89.5023 70.543 81.5308 72.2228 78.4323 72.655C77.7908 72.7441 77.2766 72.2094 77.3449 71.5767C78.9283 57.1044 66.3387 50.2425 63.0809 48.6651C62.9444 48.5894 62.9126 48.4824 62.9262 48.4111C62.9353 48.3666 62.9945 48.2953 63.0991 48.2819ZM34.1744 0C46.7276 0 56.7875 9.85172 56.7875 22.1452C56.7875 34.4387 46.7276 44.2904 34.1744 44.2904C21.6257 44.2904 11.5613 34.4387 11.5613 22.1452C11.5613 9.85172 21.6257 0 34.1744 0ZM64.3276 3.69874C76.4531 3.69874 85.9715 14.8649 82.7274 27.301C80.5389 35.6823 72.6175 41.2476 63.7907 41.0203C62.9035 41.0025 62.0344 40.9179 61.1882 40.7797C60.5785 40.6728 60.2691 40 60.6194 39.5009C63.9863 34.6486 65.9064 28.8071 65.9064 22.5467C65.9064 16.0056 63.8134 9.91455 60.169 4.91071C60.0507 4.75476 59.9642 4.5186 60.0825 4.33592C60.1735 4.19333 60.3555 4.11313 60.5239 4.07748C61.7523 3.83241 63.0127 3.69874 64.3276 3.69874Z" fill="#FF1616"/>
</svg>
