<svg width="107" height="81" viewBox="0 0 107 81" fill="none" xmlns="http://www.w3.org/2000/svg">
<path d="M105.693 38.8576L78.5504 11.7148C77.7064 10.8708 76.213 10.8708 75.369 11.7148L69.4844 17.5994C68.6055 18.4783 68.6055 19.903 69.4844 20.7819L89.1525 40.4477L69.4856 60.1169C68.6067 60.9958 68.6067 62.4206 69.4856 63.2995L75.3701 69.184C75.7921 69.606 76.365 69.8446 76.9614 69.8446C77.5567 69.8446 78.1307 69.606 78.5527 69.184L105.693 42.0424C106.572 41.1623 106.572 39.7365 105.693 38.8576Z" fill="#FF1616"/>
<path d="M36.8668 60.117L17.2021 40.45L36.8702 20.7842C37.2922 20.3622 37.5296 19.7905 37.5296 19.1929C37.5296 18.5965 37.2933 18.0237 36.8702 17.6017L30.9856 11.7171C30.5636 11.2951 29.9908 11.0576 29.3943 11.0576C28.7979 11.0576 28.2251 11.2951 27.8031 11.7171L0.659185 38.8576C-0.219728 39.7365 -0.219728 41.1612 0.659185 42.0413L27.802 69.1829C28.224 69.6049 28.7968 69.8435 29.3932 69.8435C29.9897 69.8435 30.5625 69.6049 30.9845 69.1829L36.869 63.2984C37.748 62.4206 37.748 60.9959 36.8668 60.117Z" fill="#FF1616"/>
<path d="M68.6112 2.5836C68.3253 2.05918 67.8437 1.6698 67.272 1.50099L62.5016 0.0931569C61.3109 -0.260209 60.0573 0.42289 59.7062 1.61466L37.56 76.6126C37.3912 77.1854 37.4565 77.801 37.7412 78.3243C38.0259 78.8498 38.5087 79.2381 39.0804 79.408L43.8508 80.8158C44.0635 80.8789 44.2785 80.9092 44.4889 80.9092C45.4601 80.9092 46.357 80.2745 46.6462 79.2943L68.7924 4.29528C68.9612 3.72247 68.897 3.10689 68.6112 2.5836Z" fill="#FF1616"/>
</svg>
