<svg width="93" height="93" viewBox="0 0 93 93" fill="none" xmlns="http://www.w3.org/2000/svg">
<path d="M29.5702 0C31.4868 0 32.9926 1.52312 32.9926 3.35983C32.9926 4.70376 34.1335 5.7789 35.5025 5.7789H40.0201C46.9107 5.8237 52.5236 11.3338 52.5692 18.0535V18.9046C56.9043 18.9046 61.2395 18.9942 65.6202 19.039C81.4549 19.039 93 30.328 93 45.9176V65.9422C93 81.5318 81.4549 92.8208 65.6202 92.8208C59.2772 92.9552 52.9342 93 46.5456 93C40.157 93 33.7228 92.9552 27.3798 92.8208C11.5451 92.8208 0 81.5318 0 65.9422V45.9176C0 30.328 11.5451 19.039 27.4254 19.039C33.4033 18.9494 39.5182 18.8598 45.7242 18.8598V18.0983C45.7242 15.0072 43.1232 12.4986 40.0201 12.4986H35.5025C30.3459 12.4986 26.1477 8.37717 26.1477 3.35983C26.1477 1.52312 27.6992 0 29.5702 0ZM32.947 44.4841C31.0304 44.4841 29.5245 46.0072 29.5245 47.8439V52.5477H24.6874C22.8165 52.5477 21.265 54.0708 21.265 55.9075C21.265 57.789 22.8165 59.2673 24.6874 59.2673H29.5245V64.0159C29.5245 65.8526 31.0304 67.3757 32.947 67.3757C34.818 67.3757 36.3695 65.8526 36.3695 64.0159V59.2673H41.1609C43.0319 59.2673 44.5834 57.789 44.5834 55.9075C44.5834 54.0708 43.0319 52.5477 41.1609 52.5477H36.3695V47.8439C36.3695 46.0072 34.818 44.4841 32.947 44.4841ZM68.8145 60.3873H68.3582C66.437 60.3873 64.9357 61.9104 64.9357 63.7471C64.9357 65.6286 66.437 67.1069 68.3582 67.1069H68.8145C70.6855 67.1069 72.237 65.6286 72.237 63.7471C72.237 61.9104 70.6855 60.3873 68.8145 60.3873ZM61.0113 44.9769H60.555C58.6384 44.9769 57.1325 46.5 57.1325 48.3367C57.1325 50.2182 58.6384 51.6965 60.555 51.6965H61.0113C62.8822 51.6965 64.4338 50.2182 64.4338 48.3367C64.4338 46.5 62.8822 44.9769 61.0113 44.9769Z" fill="#FF0000"/>
</svg>
