<svg width="111" height="109" viewBox="0 0 111 109" fill="none" xmlns="http://www.w3.org/2000/svg">
<path d="M39.3157 108.805C46.7459 108.805 52.7693 102.782 52.7693 95.3515C52.7693 87.9213 46.7459 81.8979 39.3157 81.8979C31.8855 81.8979 25.8622 87.9213 25.8622 95.3515C25.8622 102.782 31.8855 108.805 39.3157 108.805Z" fill="#FF0000"/>
<path d="M82.4193 81.7673C74.953 81.0326 68.3048 86.4894 67.5701 93.9558C66.8354 101.422 72.2922 108.07 79.7585 108.805C80.6433 108.892 81.5346 108.892 82.4193 108.805C89.8857 108.07 95.3425 101.422 94.6078 93.9558C93.9731 87.5053 88.8696 82.402 82.4193 81.7673Z" fill="#FF0000"/>
<path d="M110.11 30.5654C109.442 29.5646 108.309 28.9738 107.106 28.998H92.2156V28.7368C92.2167 12.9385 79.4106 0.130652 63.6123 0.129631C47.8143 0.128611 35.0064 12.9347 35.0054 28.733C35.0054 28.7343 35.0054 28.7355 35.0054 28.7368V28.998H23.9029L20.115 11.7566C19.6943 10.0027 18.1308 8.7626 16.3271 8.7524H0V16.5894H13.1923L25.3397 72.3629C25.6604 74.1966 27.2663 75.5255 29.1276 75.4977H97.4403C99.244 75.4872 100.807 74.2474 101.228 72.4935L110.894 33.8309C111.177 32.6796 110.885 31.4624 110.11 30.5654ZM63.6105 49.5049C52.1407 49.5049 42.8424 40.2066 42.8424 28.7368C42.8424 17.267 52.1407 7.96869 63.6105 7.96869C75.0803 7.96869 84.3786 17.267 84.3786 28.7368C84.3074 40.177 75.0507 49.4335 63.6105 49.5049Z" fill="#FF0000"/>
<path d="M60.4757 29.1287L53.2918 21.8141L47.6752 27.3L57.6021 37.3575C58.3256 38.0958 59.3114 38.5183 60.3451 38.5331C61.3653 38.5831 62.3597 38.2042 63.088 37.4881L79.5458 21.9447L74.1905 16.1976L60.4757 29.1287Z" fill="#FF0000"/>
</svg>
